%TF.GenerationSoftware,KiCad,Pcbnew,7.0.11-7.0.11~ubuntu20.04.1*%
%TF.CreationDate,2025-05-20T14:11:40-07:00*%
%TF.ProjectId,whaleboard,7768616c-6562-46f6-9172-642e6b696361,rev?*%
%TF.SameCoordinates,Original*%
%TF.FileFunction,Soldermask,Bot*%
%TF.FilePolarity,Negative*%
%FSLAX46Y46*%
G04 Gerber Fmt 4.6, Leading zero omitted, Abs format (unit mm)*
G04 Created by KiCad (PCBNEW 7.0.11-7.0.11~ubuntu20.04.1) date 2025-05-20 14:11:40*
%MOMM*%
%LPD*%
G01*
G04 APERTURE LIST*
G04 Aperture macros list*
%AMRoundRect*
0 Rectangle with rounded corners*
0 $1 Rounding radius*
0 $2 $3 $4 $5 $6 $7 $8 $9 X,Y pos of 4 corners*
0 Add a 4 corners polygon primitive as box body*
4,1,4,$2,$3,$4,$5,$6,$7,$8,$9,$2,$3,0*
0 Add four circle primitives for the rounded corners*
1,1,$1+$1,$2,$3*
1,1,$1+$1,$4,$5*
1,1,$1+$1,$6,$7*
1,1,$1+$1,$8,$9*
0 Add four rect primitives between the rounded corners*
20,1,$1+$1,$2,$3,$4,$5,0*
20,1,$1+$1,$4,$5,$6,$7,0*
20,1,$1+$1,$6,$7,$8,$9,0*
20,1,$1+$1,$8,$9,$2,$3,0*%
G04 Aperture macros list end*
%ADD10C,5.400000*%
%ADD11C,2.000000*%
%ADD12R,2.032000X2.032000*%
%ADD13C,2.032000*%
%ADD14R,1.700000X1.700000*%
%ADD15O,1.700000X1.700000*%
%ADD16R,1.574800X1.574800*%
%ADD17C,1.574800*%
%ADD18O,1.104000X2.004000*%
%ADD19RoundRect,0.250000X-0.620000X-0.845000X0.620000X-0.845000X0.620000X0.845000X-0.620000X0.845000X0*%
%ADD20O,1.740000X2.190000*%
%ADD21R,1.350000X1.350000*%
%ADD22O,1.350000X1.350000*%
G04 APERTURE END LIST*
D10*
%TO.C,H3*%
X155504000Y-121870000D03*
%TD*%
D11*
%TO.C,TP3*%
X155560000Y-140030000D03*
%TD*%
D10*
%TO.C,H2*%
X106504001Y-63870001D03*
%TD*%
D12*
%TO.C,U4*%
X126100000Y-128650000D03*
D13*
X126100000Y-126110000D03*
X126100000Y-123570000D03*
X126100000Y-121030000D03*
X126100000Y-118490000D03*
%TD*%
D14*
%TO.C,J6*%
X143175000Y-85500000D03*
D15*
X145715000Y-85500000D03*
X148255000Y-85500000D03*
%TD*%
D16*
%TO.C,J2*%
X119380000Y-68580000D03*
D17*
X116840000Y-68580000D03*
X114300000Y-68580000D03*
%TD*%
D10*
%TO.C,H1*%
X155504000Y-63870001D03*
%TD*%
D18*
%TO.C,J11*%
X113540000Y-143484600D03*
X120140000Y-143484600D03*
%TD*%
D16*
%TO.C,J3*%
X134620000Y-68580000D03*
D17*
X132080000Y-68580000D03*
X129540000Y-68580000D03*
%TD*%
D14*
%TO.C,J7*%
X128397000Y-85471000D03*
D15*
X128397000Y-88011000D03*
X130937000Y-85471000D03*
X130937000Y-88011000D03*
X133477000Y-85471000D03*
X133477000Y-88011000D03*
X136017000Y-85471000D03*
X136017000Y-88011000D03*
X138557000Y-85471000D03*
X138557000Y-88011000D03*
%TD*%
D14*
%TO.C,J13*%
X148026200Y-80543400D03*
D15*
X150566200Y-80543400D03*
%TD*%
D10*
%TO.C,H4*%
X106504001Y-121870000D03*
%TD*%
D11*
%TO.C,TP1*%
X149860000Y-76200000D03*
%TD*%
%TO.C,TP4*%
X149860000Y-71550000D03*
%TD*%
D16*
%TO.C,J9*%
X153210000Y-133700000D03*
D17*
X153210000Y-131160000D03*
X153210000Y-128620000D03*
%TD*%
D11*
%TO.C,TP2*%
X149860000Y-67310000D03*
%TD*%
D14*
%TO.C,J5*%
X143580000Y-77830000D03*
D15*
X141040000Y-77830000D03*
X138500000Y-77830000D03*
%TD*%
D16*
%TO.C,J4*%
X144780000Y-68560000D03*
D17*
X142240000Y-68560000D03*
X139700000Y-68560000D03*
%TD*%
D19*
%TO.C,J1*%
X125882400Y-137922000D03*
D20*
X128422400Y-137922000D03*
%TD*%
D21*
%TO.C,J12*%
X141640000Y-112810000D03*
D22*
X141640000Y-114810000D03*
%TD*%
D14*
%TO.C,J10*%
X154234000Y-68740001D03*
D15*
X156774000Y-68740001D03*
X154234000Y-71280001D03*
X156774000Y-71280001D03*
X154234000Y-73820001D03*
X156774000Y-73820001D03*
X154234000Y-76360001D03*
X156774000Y-76360001D03*
X154234000Y-78900001D03*
X156774000Y-78900001D03*
X154234000Y-81440001D03*
X156774000Y-81440001D03*
X154234000Y-83980001D03*
X156774000Y-83980001D03*
X154234000Y-86520001D03*
X156774000Y-86520001D03*
X154234000Y-89060001D03*
X156774000Y-89060001D03*
X154234000Y-91600001D03*
X156774000Y-91600001D03*
X154234000Y-94140001D03*
X156774000Y-94140001D03*
X154234000Y-96680001D03*
X156774000Y-96680001D03*
X154234000Y-99220001D03*
X156774000Y-99220001D03*
X154234000Y-101760001D03*
X156774000Y-101760001D03*
X154234000Y-104300001D03*
X156774000Y-104300001D03*
X154234000Y-106840001D03*
X156774000Y-106840001D03*
X154234000Y-109380001D03*
X156774000Y-109380001D03*
X154234000Y-111920001D03*
X156774000Y-111920001D03*
X154234000Y-114460001D03*
X156774000Y-114460001D03*
X154234000Y-117000001D03*
X156774000Y-117000001D03*
%TD*%
M02*
