%TF.GenerationSoftware,KiCad,Pcbnew,7.0.11-7.0.11~ubuntu20.04.1*%
%TF.CreationDate,2025-05-20T14:11:40-07:00*%
%TF.ProjectId,whaleboard,7768616c-6562-46f6-9172-642e6b696361,rev?*%
%TF.SameCoordinates,Original*%
%TF.FileFunction,Soldermask,Top*%
%TF.FilePolarity,Negative*%
%FSLAX46Y46*%
G04 Gerber Fmt 4.6, Leading zero omitted, Abs format (unit mm)*
G04 Created by KiCad (PCBNEW 7.0.11-7.0.11~ubuntu20.04.1) date 2025-05-20 14:11:40*
%MOMM*%
%LPD*%
G01*
G04 APERTURE LIST*
G04 Aperture macros list*
%AMRoundRect*
0 Rectangle with rounded corners*
0 $1 Rounding radius*
0 $2 $3 $4 $5 $6 $7 $8 $9 X,Y pos of 4 corners*
0 Add a 4 corners polygon primitive as box body*
4,1,4,$2,$3,$4,$5,$6,$7,$8,$9,$2,$3,0*
0 Add four circle primitives for the rounded corners*
1,1,$1+$1,$2,$3*
1,1,$1+$1,$4,$5*
1,1,$1+$1,$6,$7*
1,1,$1+$1,$8,$9*
0 Add four rect primitives between the rounded corners*
20,1,$1+$1,$2,$3,$4,$5,0*
20,1,$1+$1,$4,$5,$6,$7,0*
20,1,$1+$1,$6,$7,$8,$9,0*
20,1,$1+$1,$8,$9,$2,$3,0*%
%AMFreePoly0*
4,1,9,3.862500,-0.866500,0.737500,-0.866500,0.737500,-0.450000,-0.737500,-0.450000,-0.737500,0.450000,0.737500,0.450000,0.737500,0.866500,3.862500,0.866500,3.862500,-0.866500,3.862500,-0.866500,$1*%
G04 Aperture macros list end*
%ADD10C,0.175000*%
%ADD11C,5.400000*%
%ADD12C,2.000000*%
%ADD13RoundRect,0.200000X0.200000X0.275000X-0.200000X0.275000X-0.200000X-0.275000X0.200000X-0.275000X0*%
%ADD14RoundRect,0.225000X-0.250000X0.225000X-0.250000X-0.225000X0.250000X-0.225000X0.250000X0.225000X0*%
%ADD15RoundRect,0.250000X-0.475000X0.250000X-0.475000X-0.250000X0.475000X-0.250000X0.475000X0.250000X0*%
%ADD16RoundRect,0.200000X0.275000X-0.200000X0.275000X0.200000X-0.275000X0.200000X-0.275000X-0.200000X0*%
%ADD17RoundRect,0.250000X-1.450000X0.400000X-1.450000X-0.400000X1.450000X-0.400000X1.450000X0.400000X0*%
%ADD18RoundRect,0.200000X-0.275000X0.200000X-0.275000X-0.200000X0.275000X-0.200000X0.275000X0.200000X0*%
%ADD19RoundRect,0.225000X0.250000X-0.225000X0.250000X0.225000X-0.250000X0.225000X-0.250000X-0.225000X0*%
%ADD20RoundRect,0.250000X-2.450000X0.650000X-2.450000X-0.650000X2.450000X-0.650000X2.450000X0.650000X0*%
%ADD21RoundRect,0.150000X0.150000X-0.825000X0.150000X0.825000X-0.150000X0.825000X-0.150000X-0.825000X0*%
%ADD22RoundRect,0.225000X0.335876X0.017678X0.017678X0.335876X-0.335876X-0.017678X-0.017678X-0.335876X0*%
%ADD23RoundRect,0.076200X-0.400000X-0.750000X0.400000X-0.750000X0.400000X0.750000X-0.400000X0.750000X0*%
%ADD24RoundRect,0.076200X-0.750000X-1.025000X0.750000X-1.025000X0.750000X1.025000X-0.750000X1.025000X0*%
%ADD25RoundRect,0.250000X-0.250000X-0.475000X0.250000X-0.475000X0.250000X0.475000X-0.250000X0.475000X0*%
%ADD26RoundRect,0.250000X0.650000X-0.325000X0.650000X0.325000X-0.650000X0.325000X-0.650000X-0.325000X0*%
%ADD27R,2.032000X2.032000*%
%ADD28C,2.032000*%
%ADD29RoundRect,0.075000X0.075000X-0.725000X0.075000X0.725000X-0.075000X0.725000X-0.075000X-0.725000X0*%
%ADD30RoundRect,0.075000X0.725000X-0.075000X0.725000X0.075000X-0.725000X0.075000X-0.725000X-0.075000X0*%
%ADD31R,1.700000X1.700000*%
%ADD32O,1.700000X1.700000*%
%ADD33RoundRect,0.225000X0.225000X0.250000X-0.225000X0.250000X-0.225000X-0.250000X0.225000X-0.250000X0*%
%ADD34R,1.574800X1.574800*%
%ADD35C,1.574800*%
%ADD36RoundRect,0.250000X-0.375000X-0.850000X0.375000X-0.850000X0.375000X0.850000X-0.375000X0.850000X0*%
%ADD37RoundRect,0.250000X0.475000X-0.250000X0.475000X0.250000X-0.475000X0.250000X-0.475000X-0.250000X0*%
%ADD38RoundRect,0.225000X-0.225000X-0.250000X0.225000X-0.250000X0.225000X0.250000X-0.225000X0.250000X0*%
%ADD39RoundRect,0.102000X-0.200000X-0.675000X0.200000X-0.675000X0.200000X0.675000X-0.200000X0.675000X0*%
%ADD40RoundRect,0.102000X-0.800000X-0.700000X0.800000X-0.700000X0.800000X0.700000X-0.800000X0.700000X0*%
%ADD41RoundRect,0.102000X-0.950000X-0.950000X0.950000X-0.950000X0.950000X0.950000X-0.950000X0.950000X0*%
%ADD42O,1.104000X2.004000*%
%ADD43RoundRect,0.160000X-0.160000X0.197500X-0.160000X-0.197500X0.160000X-0.197500X0.160000X0.197500X0*%
%ADD44RoundRect,0.200000X-0.200000X-0.275000X0.200000X-0.275000X0.200000X0.275000X-0.200000X0.275000X0*%
%ADD45RoundRect,0.250000X1.450000X-0.400000X1.450000X0.400000X-1.450000X0.400000X-1.450000X-0.400000X0*%
%ADD46RoundRect,0.250000X0.250000X0.475000X-0.250000X0.475000X-0.250000X-0.475000X0.250000X-0.475000X0*%
%ADD47RoundRect,0.160000X0.160000X-0.197500X0.160000X0.197500X-0.160000X0.197500X-0.160000X-0.197500X0*%
%ADD48R,0.700000X0.510000*%
%ADD49RoundRect,0.155000X0.155000X-0.212500X0.155000X0.212500X-0.155000X0.212500X-0.155000X-0.212500X0*%
%ADD50RoundRect,0.225000X0.425000X0.225000X-0.425000X0.225000X-0.425000X-0.225000X0.425000X-0.225000X0*%
%ADD51FreePoly0,180.000000*%
%ADD52RoundRect,0.243750X0.243750X0.456250X-0.243750X0.456250X-0.243750X-0.456250X0.243750X-0.456250X0*%
%ADD53RoundRect,0.125000X-0.125000X0.537500X-0.125000X-0.537500X0.125000X-0.537500X0.125000X0.537500X0*%
%ADD54RoundRect,0.155000X-0.212500X-0.155000X0.212500X-0.155000X0.212500X0.155000X-0.212500X0.155000X0*%
%ADD55R,0.850000X0.650000*%
%ADD56RoundRect,0.225000X-0.425000X-0.225000X0.425000X-0.225000X0.425000X0.225000X-0.425000X0.225000X0*%
%ADD57FreePoly0,0.000000*%
%ADD58RoundRect,0.250000X-0.650000X1.000000X-0.650000X-1.000000X0.650000X-1.000000X0.650000X1.000000X0*%
%ADD59RoundRect,0.250000X-0.620000X-0.845000X0.620000X-0.845000X0.620000X0.845000X-0.620000X0.845000X0*%
%ADD60O,1.740000X2.190000*%
%ADD61R,1.350000X1.350000*%
%ADD62O,1.350000X1.350000*%
G04 APERTURE END LIST*
D10*
X104903100Y-130829864D02*
X104869766Y-130929864D01*
X104869766Y-130929864D02*
X104869766Y-131096531D01*
X104869766Y-131096531D02*
X104903100Y-131163197D01*
X104903100Y-131163197D02*
X104936433Y-131196531D01*
X104936433Y-131196531D02*
X105003100Y-131229864D01*
X105003100Y-131229864D02*
X105069766Y-131229864D01*
X105069766Y-131229864D02*
X105136433Y-131196531D01*
X105136433Y-131196531D02*
X105169766Y-131163197D01*
X105169766Y-131163197D02*
X105203100Y-131096531D01*
X105203100Y-131096531D02*
X105236433Y-130963197D01*
X105236433Y-130963197D02*
X105269766Y-130896531D01*
X105269766Y-130896531D02*
X105303100Y-130863197D01*
X105303100Y-130863197D02*
X105369766Y-130829864D01*
X105369766Y-130829864D02*
X105436433Y-130829864D01*
X105436433Y-130829864D02*
X105503100Y-130863197D01*
X105503100Y-130863197D02*
X105536433Y-130896531D01*
X105536433Y-130896531D02*
X105569766Y-130963197D01*
X105569766Y-130963197D02*
X105569766Y-131129864D01*
X105569766Y-131129864D02*
X105536433Y-131229864D01*
X105336433Y-131529864D02*
X104636433Y-131529864D01*
X105303100Y-131529864D02*
X105336433Y-131596531D01*
X105336433Y-131596531D02*
X105336433Y-131729864D01*
X105336433Y-131729864D02*
X105303100Y-131796531D01*
X105303100Y-131796531D02*
X105269766Y-131829864D01*
X105269766Y-131829864D02*
X105203100Y-131863198D01*
X105203100Y-131863198D02*
X105003100Y-131863198D01*
X105003100Y-131863198D02*
X104936433Y-131829864D01*
X104936433Y-131829864D02*
X104903100Y-131796531D01*
X104903100Y-131796531D02*
X104869766Y-131729864D01*
X104869766Y-131729864D02*
X104869766Y-131596531D01*
X104869766Y-131596531D02*
X104903100Y-131529864D01*
X104903100Y-132429864D02*
X104869766Y-132363197D01*
X104869766Y-132363197D02*
X104869766Y-132229864D01*
X104869766Y-132229864D02*
X104903100Y-132163197D01*
X104903100Y-132163197D02*
X104969766Y-132129864D01*
X104969766Y-132129864D02*
X105236433Y-132129864D01*
X105236433Y-132129864D02*
X105303100Y-132163197D01*
X105303100Y-132163197D02*
X105336433Y-132229864D01*
X105336433Y-132229864D02*
X105336433Y-132363197D01*
X105336433Y-132363197D02*
X105303100Y-132429864D01*
X105303100Y-132429864D02*
X105236433Y-132463197D01*
X105236433Y-132463197D02*
X105169766Y-132463197D01*
X105169766Y-132463197D02*
X105103100Y-132129864D01*
X104903100Y-133063197D02*
X104869766Y-132996531D01*
X104869766Y-132996531D02*
X104869766Y-132863197D01*
X104869766Y-132863197D02*
X104903100Y-132796531D01*
X104903100Y-132796531D02*
X104936433Y-132763197D01*
X104936433Y-132763197D02*
X105003100Y-132729864D01*
X105003100Y-132729864D02*
X105203100Y-132729864D01*
X105203100Y-132729864D02*
X105269766Y-132763197D01*
X105269766Y-132763197D02*
X105303100Y-132796531D01*
X105303100Y-132796531D02*
X105336433Y-132863197D01*
X105336433Y-132863197D02*
X105336433Y-132996531D01*
X105336433Y-132996531D02*
X105303100Y-133063197D01*
X104869766Y-133363197D02*
X105336433Y-133363197D01*
X105569766Y-133363197D02*
X105536433Y-133329864D01*
X105536433Y-133329864D02*
X105503100Y-133363197D01*
X105503100Y-133363197D02*
X105536433Y-133396531D01*
X105536433Y-133396531D02*
X105569766Y-133363197D01*
X105569766Y-133363197D02*
X105503100Y-133363197D01*
X104869766Y-133996530D02*
X105236433Y-133996530D01*
X105236433Y-133996530D02*
X105303100Y-133963197D01*
X105303100Y-133963197D02*
X105336433Y-133896530D01*
X105336433Y-133896530D02*
X105336433Y-133763197D01*
X105336433Y-133763197D02*
X105303100Y-133696530D01*
X104903100Y-133996530D02*
X104869766Y-133929864D01*
X104869766Y-133929864D02*
X104869766Y-133763197D01*
X104869766Y-133763197D02*
X104903100Y-133696530D01*
X104903100Y-133696530D02*
X104969766Y-133663197D01*
X104969766Y-133663197D02*
X105036433Y-133663197D01*
X105036433Y-133663197D02*
X105103100Y-133696530D01*
X105103100Y-133696530D02*
X105136433Y-133763197D01*
X105136433Y-133763197D02*
X105136433Y-133929864D01*
X105136433Y-133929864D02*
X105169766Y-133996530D01*
X104869766Y-134429863D02*
X104903100Y-134363197D01*
X104903100Y-134363197D02*
X104969766Y-134329863D01*
X104969766Y-134329863D02*
X105569766Y-134329863D01*
X104869766Y-135229863D02*
X105569766Y-135229863D01*
X105569766Y-135229863D02*
X105569766Y-135496530D01*
X105569766Y-135496530D02*
X105536433Y-135563197D01*
X105536433Y-135563197D02*
X105503100Y-135596530D01*
X105503100Y-135596530D02*
X105436433Y-135629863D01*
X105436433Y-135629863D02*
X105336433Y-135629863D01*
X105336433Y-135629863D02*
X105269766Y-135596530D01*
X105269766Y-135596530D02*
X105236433Y-135563197D01*
X105236433Y-135563197D02*
X105203100Y-135496530D01*
X105203100Y-135496530D02*
X105203100Y-135229863D01*
X104869766Y-136029863D02*
X104903100Y-135963197D01*
X104903100Y-135963197D02*
X104936433Y-135929863D01*
X104936433Y-135929863D02*
X105003100Y-135896530D01*
X105003100Y-135896530D02*
X105203100Y-135896530D01*
X105203100Y-135896530D02*
X105269766Y-135929863D01*
X105269766Y-135929863D02*
X105303100Y-135963197D01*
X105303100Y-135963197D02*
X105336433Y-136029863D01*
X105336433Y-136029863D02*
X105336433Y-136129863D01*
X105336433Y-136129863D02*
X105303100Y-136196530D01*
X105303100Y-136196530D02*
X105269766Y-136229863D01*
X105269766Y-136229863D02*
X105203100Y-136263197D01*
X105203100Y-136263197D02*
X105003100Y-136263197D01*
X105003100Y-136263197D02*
X104936433Y-136229863D01*
X104936433Y-136229863D02*
X104903100Y-136196530D01*
X104903100Y-136196530D02*
X104869766Y-136129863D01*
X104869766Y-136129863D02*
X104869766Y-136029863D01*
X104869766Y-136563196D02*
X105336433Y-136563196D01*
X105203100Y-136563196D02*
X105269766Y-136596530D01*
X105269766Y-136596530D02*
X105303100Y-136629863D01*
X105303100Y-136629863D02*
X105336433Y-136696530D01*
X105336433Y-136696530D02*
X105336433Y-136763196D01*
X105336433Y-136996529D02*
X104636433Y-136996529D01*
X105303100Y-136996529D02*
X105336433Y-137063196D01*
X105336433Y-137063196D02*
X105336433Y-137196529D01*
X105336433Y-137196529D02*
X105303100Y-137263196D01*
X105303100Y-137263196D02*
X105269766Y-137296529D01*
X105269766Y-137296529D02*
X105203100Y-137329863D01*
X105203100Y-137329863D02*
X105003100Y-137329863D01*
X105003100Y-137329863D02*
X104936433Y-137296529D01*
X104936433Y-137296529D02*
X104903100Y-137263196D01*
X104903100Y-137263196D02*
X104869766Y-137196529D01*
X104869766Y-137196529D02*
X104869766Y-137063196D01*
X104869766Y-137063196D02*
X104903100Y-136996529D01*
X104869766Y-137729862D02*
X104903100Y-137663196D01*
X104903100Y-137663196D02*
X104936433Y-137629862D01*
X104936433Y-137629862D02*
X105003100Y-137596529D01*
X105003100Y-137596529D02*
X105203100Y-137596529D01*
X105203100Y-137596529D02*
X105269766Y-137629862D01*
X105269766Y-137629862D02*
X105303100Y-137663196D01*
X105303100Y-137663196D02*
X105336433Y-137729862D01*
X105336433Y-137729862D02*
X105336433Y-137829862D01*
X105336433Y-137829862D02*
X105303100Y-137896529D01*
X105303100Y-137896529D02*
X105269766Y-137929862D01*
X105269766Y-137929862D02*
X105203100Y-137963196D01*
X105203100Y-137963196D02*
X105003100Y-137963196D01*
X105003100Y-137963196D02*
X104936433Y-137929862D01*
X104936433Y-137929862D02*
X104903100Y-137896529D01*
X104903100Y-137896529D02*
X104869766Y-137829862D01*
X104869766Y-137829862D02*
X104869766Y-137729862D01*
X104869766Y-138263195D02*
X105336433Y-138263195D01*
X105569766Y-138263195D02*
X105536433Y-138229862D01*
X105536433Y-138229862D02*
X105503100Y-138263195D01*
X105503100Y-138263195D02*
X105536433Y-138296529D01*
X105536433Y-138296529D02*
X105569766Y-138263195D01*
X105569766Y-138263195D02*
X105503100Y-138263195D01*
X104903100Y-138563195D02*
X104869766Y-138629862D01*
X104869766Y-138629862D02*
X104869766Y-138763195D01*
X104869766Y-138763195D02*
X104903100Y-138829862D01*
X104903100Y-138829862D02*
X104969766Y-138863195D01*
X104969766Y-138863195D02*
X105003100Y-138863195D01*
X105003100Y-138863195D02*
X105069766Y-138829862D01*
X105069766Y-138829862D02*
X105103100Y-138763195D01*
X105103100Y-138763195D02*
X105103100Y-138663195D01*
X105103100Y-138663195D02*
X105136433Y-138596528D01*
X105136433Y-138596528D02*
X105203100Y-138563195D01*
X105203100Y-138563195D02*
X105236433Y-138563195D01*
X105236433Y-138563195D02*
X105303100Y-138596528D01*
X105303100Y-138596528D02*
X105336433Y-138663195D01*
X105336433Y-138663195D02*
X105336433Y-138763195D01*
X105336433Y-138763195D02*
X105303100Y-138829862D01*
X104903100Y-139429862D02*
X104869766Y-139363195D01*
X104869766Y-139363195D02*
X104869766Y-139229862D01*
X104869766Y-139229862D02*
X104903100Y-139163195D01*
X104903100Y-139163195D02*
X104969766Y-139129862D01*
X104969766Y-139129862D02*
X105236433Y-139129862D01*
X105236433Y-139129862D02*
X105303100Y-139163195D01*
X105303100Y-139163195D02*
X105336433Y-139229862D01*
X105336433Y-139229862D02*
X105336433Y-139363195D01*
X105336433Y-139363195D02*
X105303100Y-139429862D01*
X105303100Y-139429862D02*
X105236433Y-139463195D01*
X105236433Y-139463195D02*
X105169766Y-139463195D01*
X105169766Y-139463195D02*
X105103100Y-139129862D01*
X105569766Y-140196528D02*
X104869766Y-140429862D01*
X104869766Y-140429862D02*
X105569766Y-140663195D01*
X105569766Y-141029862D02*
X105569766Y-141096528D01*
X105569766Y-141096528D02*
X105536433Y-141163195D01*
X105536433Y-141163195D02*
X105503100Y-141196528D01*
X105503100Y-141196528D02*
X105436433Y-141229862D01*
X105436433Y-141229862D02*
X105303100Y-141263195D01*
X105303100Y-141263195D02*
X105136433Y-141263195D01*
X105136433Y-141263195D02*
X105003100Y-141229862D01*
X105003100Y-141229862D02*
X104936433Y-141196528D01*
X104936433Y-141196528D02*
X104903100Y-141163195D01*
X104903100Y-141163195D02*
X104869766Y-141096528D01*
X104869766Y-141096528D02*
X104869766Y-141029862D01*
X104869766Y-141029862D02*
X104903100Y-140963195D01*
X104903100Y-140963195D02*
X104936433Y-140929862D01*
X104936433Y-140929862D02*
X105003100Y-140896528D01*
X105003100Y-140896528D02*
X105136433Y-140863195D01*
X105136433Y-140863195D02*
X105303100Y-140863195D01*
X105303100Y-140863195D02*
X105436433Y-140896528D01*
X105436433Y-140896528D02*
X105503100Y-140929862D01*
X105503100Y-140929862D02*
X105536433Y-140963195D01*
X105536433Y-140963195D02*
X105569766Y-141029862D01*
X104936433Y-141563195D02*
X104903100Y-141596529D01*
X104903100Y-141596529D02*
X104869766Y-141563195D01*
X104869766Y-141563195D02*
X104903100Y-141529862D01*
X104903100Y-141529862D02*
X104936433Y-141563195D01*
X104936433Y-141563195D02*
X104869766Y-141563195D01*
X104869766Y-142263195D02*
X104869766Y-141863195D01*
X104869766Y-142063195D02*
X105569766Y-142063195D01*
X105569766Y-142063195D02*
X105469766Y-141996528D01*
X105469766Y-141996528D02*
X105403100Y-141929862D01*
X105403100Y-141929862D02*
X105369766Y-141863195D01*
D11*
%TO.C,H3*%
X155504000Y-121870000D03*
%TD*%
D12*
%TO.C,TP3*%
X155560000Y-140030000D03*
%TD*%
D13*
%TO.C,R2*%
X120225000Y-77300000D03*
X118575000Y-77300000D03*
%TD*%
D14*
%TO.C,C32*%
X109982000Y-132321000D03*
X109982000Y-133871000D03*
%TD*%
D15*
%TO.C,C13*%
X122174000Y-79060000D03*
X122174000Y-80960000D03*
%TD*%
D16*
%TO.C,R23*%
X109474000Y-105727000D03*
X109474000Y-104077000D03*
%TD*%
D17*
%TO.C,L2*%
X118999000Y-86360000D03*
X118999000Y-90810000D03*
%TD*%
D18*
%TO.C,R21*%
X146304000Y-127445000D03*
X146304000Y-129095000D03*
%TD*%
D19*
%TO.C,C20*%
X133350000Y-114109800D03*
X133350000Y-112559800D03*
%TD*%
D20*
%TO.C,C2*%
X124225000Y-69900000D03*
X124225000Y-75000000D03*
%TD*%
D16*
%TO.C,R9*%
X137007600Y-74866000D03*
X137007600Y-73216000D03*
%TD*%
D14*
%TO.C,C25*%
X131826000Y-92951000D03*
X131826000Y-94501000D03*
%TD*%
D13*
%TO.C,R5*%
X112585000Y-92649000D03*
X110935000Y-92649000D03*
%TD*%
D21*
%TO.C,U6*%
X147574000Y-123506000D03*
X148844000Y-123506000D03*
X150114000Y-123506000D03*
X151384000Y-123506000D03*
X151384000Y-118556000D03*
X150114000Y-118556000D03*
X148844000Y-118556000D03*
X147574000Y-118556000D03*
%TD*%
D22*
%TO.C,C22*%
X150763608Y-108345608D03*
X149667592Y-107249592D03*
%TD*%
D23*
%TO.C,J8*%
X143662000Y-139514000D03*
X142562000Y-139514000D03*
X141462000Y-139514000D03*
X140362000Y-139514000D03*
X139262000Y-139514000D03*
X138162000Y-139514000D03*
X137062000Y-139514000D03*
X135962000Y-139514000D03*
D24*
X133587000Y-133814000D03*
X133587000Y-142114000D03*
X147337000Y-133814000D03*
X147337000Y-142114000D03*
%TD*%
D25*
%TO.C,C41*%
X127863912Y-107050485D03*
X129763912Y-107050485D03*
%TD*%
D26*
%TO.C,C4*%
X115443000Y-87520000D03*
X115443000Y-84570000D03*
%TD*%
D11*
%TO.C,H2*%
X106504001Y-63870001D03*
%TD*%
D27*
%TO.C,U4*%
X126100000Y-128650000D03*
D28*
X126100000Y-126110000D03*
X126100000Y-123570000D03*
X126100000Y-121030000D03*
X126100000Y-118490000D03*
%TD*%
D29*
%TO.C,U7*%
X133443142Y-110221215D03*
X133943142Y-110221215D03*
X134443142Y-110221215D03*
X134943142Y-110221215D03*
X135443142Y-110221215D03*
X135943142Y-110221215D03*
X136443142Y-110221215D03*
X136943142Y-110221215D03*
X137443142Y-110221215D03*
X137943142Y-110221215D03*
X138443142Y-110221215D03*
X138943142Y-110221215D03*
X139443142Y-110221215D03*
X139943142Y-110221215D03*
X140443142Y-110221215D03*
X140943142Y-110221215D03*
X141443142Y-110221215D03*
X141943142Y-110221215D03*
X142443142Y-110221215D03*
X142943142Y-110221215D03*
X143443142Y-110221215D03*
X143943142Y-110221215D03*
X144443142Y-110221215D03*
X144943142Y-110221215D03*
X145443142Y-110221215D03*
D30*
X147118142Y-108546215D03*
X147118142Y-108046215D03*
X147118142Y-107546215D03*
X147118142Y-107046215D03*
X147118142Y-106546215D03*
X147118142Y-106046215D03*
X147118142Y-105546215D03*
X147118142Y-105046215D03*
X147118142Y-104546215D03*
X147118142Y-104046215D03*
X147118142Y-103546215D03*
X147118142Y-103046215D03*
X147118142Y-102546215D03*
X147118142Y-102046215D03*
X147118142Y-101546215D03*
X147118142Y-101046215D03*
X147118142Y-100546215D03*
X147118142Y-100046215D03*
X147118142Y-99546215D03*
X147118142Y-99046215D03*
X147118142Y-98546215D03*
X147118142Y-98046215D03*
X147118142Y-97546215D03*
X147118142Y-97046215D03*
X147118142Y-96546215D03*
D29*
X145443142Y-94871215D03*
X144943142Y-94871215D03*
X144443142Y-94871215D03*
X143943142Y-94871215D03*
X143443142Y-94871215D03*
X142943142Y-94871215D03*
X142443142Y-94871215D03*
X141943142Y-94871215D03*
X141443142Y-94871215D03*
X140943142Y-94871215D03*
X140443142Y-94871215D03*
X139943142Y-94871215D03*
X139443142Y-94871215D03*
X138943142Y-94871215D03*
X138443142Y-94871215D03*
X137943142Y-94871215D03*
X137443142Y-94871215D03*
X136943142Y-94871215D03*
X136443142Y-94871215D03*
X135943142Y-94871215D03*
X135443142Y-94871215D03*
X134943142Y-94871215D03*
X134443142Y-94871215D03*
X133943142Y-94871215D03*
X133443142Y-94871215D03*
D30*
X131768142Y-96546215D03*
X131768142Y-97046215D03*
X131768142Y-97546215D03*
X131768142Y-98046215D03*
X131768142Y-98546215D03*
X131768142Y-99046215D03*
X131768142Y-99546215D03*
X131768142Y-100046215D03*
X131768142Y-100546215D03*
X131768142Y-101046215D03*
X131768142Y-101546215D03*
X131768142Y-102046215D03*
X131768142Y-102546215D03*
X131768142Y-103046215D03*
X131768142Y-103546215D03*
X131768142Y-104046215D03*
X131768142Y-104546215D03*
X131768142Y-105046215D03*
X131768142Y-105546215D03*
X131768142Y-106046215D03*
X131768142Y-106546215D03*
X131768142Y-107046215D03*
X131768142Y-107546215D03*
X131768142Y-108046215D03*
X131768142Y-108546215D03*
%TD*%
D16*
%TO.C,R13*%
X139065000Y-129095000D03*
X139065000Y-127445000D03*
%TD*%
D31*
%TO.C,J6*%
X143175000Y-85500000D03*
D32*
X145715000Y-85500000D03*
X148255000Y-85500000D03*
%TD*%
D14*
%TO.C,C5*%
X115951000Y-89334000D03*
X115951000Y-90884000D03*
%TD*%
D16*
%TO.C,R11*%
X135636000Y-129095000D03*
X135636000Y-127445000D03*
%TD*%
D33*
%TO.C,C14*%
X121425000Y-127762000D03*
X119875000Y-127762000D03*
%TD*%
D34*
%TO.C,J2*%
X119380000Y-68580000D03*
D35*
X116840000Y-68580000D03*
X114300000Y-68580000D03*
%TD*%
D11*
%TO.C,H1*%
X155504000Y-63870001D03*
%TD*%
D36*
%TO.C,L8*%
X136847000Y-113030000D03*
X138997000Y-113030000D03*
%TD*%
D37*
%TO.C,C6*%
X114427000Y-96647000D03*
X114427000Y-94747000D03*
%TD*%
D38*
%TO.C,C27*%
X129273000Y-110490000D03*
X130823000Y-110490000D03*
%TD*%
D18*
%TO.C,R17*%
X142748000Y-123635000D03*
X142748000Y-125285000D03*
%TD*%
D16*
%TO.C,R7*%
X112050000Y-100100000D03*
X112050000Y-98450000D03*
%TD*%
D39*
%TO.C,J11*%
X115540000Y-140809600D03*
X116190000Y-140809600D03*
X116840000Y-140809600D03*
X117490000Y-140809600D03*
X118140000Y-140809600D03*
D40*
X113640000Y-141034600D03*
X120040000Y-141034600D03*
D41*
X118040000Y-143484600D03*
X115640000Y-143484600D03*
D42*
X113540000Y-143484600D03*
X120140000Y-143484600D03*
%TD*%
D43*
%TO.C,R27*%
X131064000Y-112940500D03*
X131064000Y-114135500D03*
%TD*%
D34*
%TO.C,J3*%
X134620000Y-68580000D03*
D35*
X132080000Y-68580000D03*
X129540000Y-68580000D03*
%TD*%
D37*
%TO.C,C12*%
X106680000Y-96647000D03*
X106680000Y-94747000D03*
%TD*%
D38*
%TO.C,C26*%
X128251044Y-102616000D03*
X129801044Y-102616000D03*
%TD*%
D44*
%TO.C,R6*%
X109919000Y-77917000D03*
X111569000Y-77917000D03*
%TD*%
D26*
%TO.C,C10*%
X107696000Y-87218000D03*
X107696000Y-84268000D03*
%TD*%
%TO.C,C3*%
X115443000Y-82440000D03*
X115443000Y-79490000D03*
%TD*%
D17*
%TO.C,L4*%
X111252000Y-86360000D03*
X111252000Y-90810000D03*
%TD*%
D45*
%TO.C,L5*%
X131970000Y-81245000D03*
X131970000Y-76795000D03*
%TD*%
D38*
%TO.C,C45*%
X128257000Y-108966000D03*
X129807000Y-108966000D03*
%TD*%
D25*
%TO.C,C19*%
X116398000Y-110998000D03*
X118298000Y-110998000D03*
%TD*%
D46*
%TO.C,C43*%
X151064000Y-100076000D03*
X149164000Y-100076000D03*
%TD*%
D47*
%TO.C,R29*%
X132080000Y-114135500D03*
X132080000Y-112940500D03*
%TD*%
D18*
%TO.C,R24*%
X109474000Y-107633000D03*
X109474000Y-109283000D03*
%TD*%
D16*
%TO.C,R10*%
X128075000Y-75150000D03*
X128075000Y-73500000D03*
%TD*%
D48*
%TO.C,U8*%
X117746000Y-136840000D03*
X117746000Y-135890000D03*
X117746000Y-134940000D03*
X115426000Y-134940000D03*
X115426000Y-135890000D03*
X115426000Y-136840000D03*
%TD*%
D13*
%TO.C,R8*%
X109537000Y-92649000D03*
X107887000Y-92649000D03*
%TD*%
D31*
%TO.C,J7*%
X128397000Y-85471000D03*
D32*
X128397000Y-88011000D03*
X130937000Y-85471000D03*
X130937000Y-88011000D03*
X133477000Y-85471000D03*
X133477000Y-88011000D03*
X136017000Y-85471000D03*
X136017000Y-88011000D03*
X138557000Y-85471000D03*
X138557000Y-88011000D03*
%TD*%
D43*
%TO.C,R28*%
X129921000Y-111797500D03*
X129921000Y-112992500D03*
%TD*%
D19*
%TO.C,C21*%
X143910000Y-113865000D03*
X143910000Y-112315000D03*
%TD*%
D25*
%TO.C,C29*%
X144050000Y-119880000D03*
X145950000Y-119880000D03*
%TD*%
D13*
%TO.C,R20*%
X129857000Y-99060000D03*
X128207000Y-99060000D03*
%TD*%
D15*
%TO.C,C42*%
X135128000Y-90617000D03*
X135128000Y-92517000D03*
%TD*%
D19*
%TO.C,C44*%
X137160000Y-116853000D03*
X137160000Y-115303000D03*
%TD*%
D38*
%TO.C,C17*%
X116827000Y-127762000D03*
X118377000Y-127762000D03*
%TD*%
D46*
%TO.C,C16*%
X122078000Y-110998000D03*
X120178000Y-110998000D03*
%TD*%
D31*
%TO.C,J13*%
X148026200Y-80543400D03*
D32*
X150566200Y-80543400D03*
%TD*%
D33*
%TO.C,C28*%
X148984000Y-116459000D03*
X147434000Y-116459000D03*
%TD*%
D14*
%TO.C,C35*%
X133350000Y-91427000D03*
X133350000Y-92977000D03*
%TD*%
D26*
%TO.C,C9*%
X107696000Y-82440000D03*
X107696000Y-79490000D03*
%TD*%
D13*
%TO.C,R25*%
X151125000Y-88200000D03*
X149475000Y-88200000D03*
%TD*%
D49*
%TO.C,FB1*%
X133604000Y-128583500D03*
X133604000Y-127448500D03*
%TD*%
D11*
%TO.C,H4*%
X106504001Y-121870000D03*
%TD*%
D50*
%TO.C,U5*%
X118028000Y-125960000D03*
D51*
X117940500Y-124460000D03*
D50*
X118028000Y-122960000D03*
%TD*%
D33*
%TO.C,C31*%
X118377000Y-121158000D03*
X116827000Y-121158000D03*
%TD*%
%TO.C,C23*%
X150635000Y-96774000D03*
X149085000Y-96774000D03*
%TD*%
%TO.C,C30*%
X121425000Y-121158000D03*
X119875000Y-121158000D03*
%TD*%
D17*
%TO.C,L1*%
X118999000Y-79756000D03*
X118999000Y-84206000D03*
%TD*%
D19*
%TO.C,C33*%
X144018000Y-117615000D03*
X144018000Y-116065000D03*
%TD*%
D17*
%TO.C,L3*%
X111252000Y-79756000D03*
X111252000Y-84206000D03*
%TD*%
D14*
%TO.C,C11*%
X108204000Y-89334000D03*
X108204000Y-90884000D03*
%TD*%
D52*
%TO.C,D1*%
X107617500Y-104140000D03*
X105742500Y-104140000D03*
%TD*%
D16*
%TO.C,R15*%
X143002000Y-129095000D03*
X143002000Y-127445000D03*
%TD*%
%TO.C,R14*%
X140970000Y-129095000D03*
X140970000Y-127445000D03*
%TD*%
D33*
%TO.C,C15*%
X121933000Y-113030000D03*
X120383000Y-113030000D03*
%TD*%
D44*
%TO.C,R4*%
X115634000Y-92649000D03*
X117284000Y-92649000D03*
%TD*%
D53*
%TO.C,U1*%
X118450000Y-94559500D03*
X117800000Y-94559500D03*
X117150000Y-94559500D03*
X116500000Y-94559500D03*
X116500000Y-96834500D03*
X117150000Y-96834500D03*
X117800000Y-96834500D03*
X118450000Y-96834500D03*
%TD*%
D33*
%TO.C,C34*%
X150635000Y-98298000D03*
X149085000Y-98298000D03*
%TD*%
D45*
%TO.C,L6*%
X121128000Y-119319000D03*
X121128000Y-114869000D03*
%TD*%
D19*
%TO.C,C39*%
X147066000Y-114262200D03*
X147066000Y-112712200D03*
%TD*%
D37*
%TO.C,C38*%
X139192000Y-117282000D03*
X139192000Y-115382000D03*
%TD*%
D54*
%TO.C,FB2*%
X136084500Y-118110000D03*
X137219500Y-118110000D03*
%TD*%
D16*
%TO.C,R16*%
X144780000Y-129095000D03*
X144780000Y-127445000D03*
%TD*%
D55*
%TO.C,U9*%
X142485000Y-118695000D03*
X142485000Y-117045000D03*
X140935000Y-117045000D03*
X140935000Y-118695000D03*
%TD*%
D52*
%TO.C,D2*%
X107617500Y-109220000D03*
X105742500Y-109220000D03*
%TD*%
D12*
%TO.C,TP1*%
X149860000Y-76200000D03*
%TD*%
%TO.C,TP4*%
X149860000Y-71550000D03*
%TD*%
D34*
%TO.C,J9*%
X153210000Y-133700000D03*
D35*
X153210000Y-131160000D03*
X153210000Y-128620000D03*
%TD*%
D14*
%TO.C,C7*%
X112268000Y-95430000D03*
X112268000Y-96980000D03*
%TD*%
D18*
%TO.C,R19*%
X139192000Y-123635000D03*
X139192000Y-125285000D03*
%TD*%
D19*
%TO.C,C40*%
X145542000Y-113805000D03*
X145542000Y-112255000D03*
%TD*%
D49*
%TO.C,FB3*%
X148336000Y-113851500D03*
X148336000Y-112716500D03*
%TD*%
D14*
%TO.C,C24*%
X142240000Y-91427000D03*
X142240000Y-92977000D03*
%TD*%
D12*
%TO.C,TP2*%
X149860000Y-67310000D03*
%TD*%
D20*
%TO.C,C8*%
X109425000Y-70000000D03*
X109425000Y-75100000D03*
%TD*%
D45*
%TO.C,L7*%
X117094000Y-119319000D03*
X117094000Y-114869000D03*
%TD*%
D16*
%TO.C,R12*%
X137160000Y-129095000D03*
X137160000Y-127445000D03*
%TD*%
%TO.C,R3*%
X116408200Y-100662200D03*
X116408200Y-99012200D03*
%TD*%
D31*
%TO.C,J5*%
X143580000Y-77830000D03*
D32*
X141040000Y-77830000D03*
X138500000Y-77830000D03*
%TD*%
D38*
%TO.C,C18*%
X116573000Y-113030000D03*
X118123000Y-113030000D03*
%TD*%
D18*
%TO.C,R22*%
X147955000Y-127445000D03*
X147955000Y-129095000D03*
%TD*%
%TO.C,R18*%
X140970000Y-123635000D03*
X140970000Y-125285000D03*
%TD*%
D56*
%TO.C,U3*%
X120194000Y-122960000D03*
D57*
X120281500Y-124460000D03*
D56*
X120194000Y-125960000D03*
%TD*%
D19*
%TO.C,C37*%
X134874000Y-114109800D03*
X134874000Y-112559800D03*
%TD*%
D58*
%TO.C,D3*%
X112776000Y-132874000D03*
X112776000Y-136874000D03*
%TD*%
D34*
%TO.C,J4*%
X144780000Y-68560000D03*
D35*
X142240000Y-68560000D03*
X139700000Y-68560000D03*
%TD*%
D53*
%TO.C,U2*%
X110703000Y-94559500D03*
X110053000Y-94559500D03*
X109403000Y-94559500D03*
X108753000Y-94559500D03*
X108753000Y-96834500D03*
X109403000Y-96834500D03*
X110053000Y-96834500D03*
X110703000Y-96834500D03*
%TD*%
D44*
%TO.C,R1*%
X118682000Y-92649000D03*
X120332000Y-92649000D03*
%TD*%
D59*
%TO.C,J1*%
X125882400Y-137922000D03*
D60*
X128422400Y-137922000D03*
%TD*%
D46*
%TO.C,C36*%
X139290000Y-119640000D03*
X137390000Y-119640000D03*
%TD*%
D14*
%TO.C,C1*%
X120015000Y-95430000D03*
X120015000Y-96980000D03*
%TD*%
D61*
%TO.C,J12*%
X141640000Y-112810000D03*
D62*
X141640000Y-114810000D03*
%TD*%
D31*
%TO.C,J10*%
X154234000Y-68740001D03*
D32*
X156774000Y-68740001D03*
X154234000Y-71280001D03*
X156774000Y-71280001D03*
X154234000Y-73820001D03*
X156774000Y-73820001D03*
X154234000Y-76360001D03*
X156774000Y-76360001D03*
X154234000Y-78900001D03*
X156774000Y-78900001D03*
X154234000Y-81440001D03*
X156774000Y-81440001D03*
X154234000Y-83980001D03*
X156774000Y-83980001D03*
X154234000Y-86520001D03*
X156774000Y-86520001D03*
X154234000Y-89060001D03*
X156774000Y-89060001D03*
X154234000Y-91600001D03*
X156774000Y-91600001D03*
X154234000Y-94140001D03*
X156774000Y-94140001D03*
X154234000Y-96680001D03*
X156774000Y-96680001D03*
X154234000Y-99220001D03*
X156774000Y-99220001D03*
X154234000Y-101760001D03*
X156774000Y-101760001D03*
X154234000Y-104300001D03*
X156774000Y-104300001D03*
X154234000Y-106840001D03*
X156774000Y-106840001D03*
X154234000Y-109380001D03*
X156774000Y-109380001D03*
X154234000Y-111920001D03*
X156774000Y-111920001D03*
X154234000Y-114460001D03*
X156774000Y-114460001D03*
X154234000Y-117000001D03*
X156774000Y-117000001D03*
%TD*%
M02*
