M48
; DRILL file {KiCad 7.0.11-7.0.11~ubuntu20.04.1} date Tue 20 May 2025 02:11:37 PM PDT
; FORMAT={-:-/ absolute / inch / decimal}
; #@! TF.CreationDate,2025-05-20T14:11:37-07:00
; #@! TF.GenerationSoftware,Kicad,Pcbnew,7.0.11-7.0.11~ubuntu20.04.1
; #@! TF.FileFunction,MixedPlating,1,4
FMAT,2
INCH
; #@! TA.AperFunction,Plated,PTH,ViaDrill
T1C0.0120
; #@! TA.AperFunction,Plated,PTH,ComponentDrill
T2C0.0197
; #@! TA.AperFunction,Plated,PTH,ComponentDrill
T3C0.0315
; #@! TA.AperFunction,Plated,PTH,ComponentDrill
T4C0.0394
; #@! TA.AperFunction,Plated,PTH,ComponentDrill
T5C0.0420
; #@! TA.AperFunction,Plated,PTH,ComponentDrill
T6C0.0433
; #@! TA.AperFunction,Plated,PTH,ComponentDrill
T7C0.0469
; #@! TA.AperFunction,Plated,PTH,ComponentDrill
T8C0.1063
%
G90
G05
T1
X4.12Y-4.1
X4.12Y-4.3
X4.281Y-3.87
X4.32Y-3.93
X4.33Y-5.32
X4.3517Y-3.9
X4.39Y-4.16
X4.39Y-4.2375
X4.4067Y-3.7
X4.4459Y-3.9783
X4.5083Y-3.6484
X4.5482Y-5.0295
X4.583Y-4.0
X4.5906Y-5.3512
X4.645Y-3.935
X4.6882Y-4.3138
X4.7063Y-5.1681
X4.7063Y-5.3004
X4.71Y-3.95
X4.7146Y-5.0768
X4.7173Y-3.7012
X4.72Y-3.9047
X4.8031Y-4.311
X4.924Y-4.095
X4.96Y-5.2
X4.969Y-3.285
X4.99Y-4.22
X5.016Y-3.693
X5.02Y-4.29
X5.05Y-4.0
X5.06Y-4.35
X5.075Y-4.4
X5.0787Y-4.1181
X5.1043Y-4.7732
X5.11Y-3.99
X5.1181Y-4.1575
X5.125Y-3.801
X5.15Y-3.72
X5.1642Y-4.6165
X5.17Y-4.31
X5.2Y-3.62
X5.22Y-5.06
X5.246Y-4.234
X5.25Y-4.665
X5.2598Y-3.8465
X5.26Y-4.98
X5.263Y-4.133
X5.2677Y-3.9182
X5.27Y-3.99
X5.2799Y-4.4591
X5.2813Y-4.5213
X5.2813Y-4.196
X5.292Y-3.792
X5.3Y-2.974
X5.311Y-3.9528
X5.322Y-4.98
X5.33Y-4.27
X5.3386Y-4.0039
X5.35Y-4.599
X5.358Y-2.967
X5.36Y-4.68
X5.3699Y-3.9816
X5.38Y-3.58
X5.4Y-4.98
X5.405Y-3.42
X5.412Y-4.282
X5.44Y-3.94
X5.44Y-5.43
X5.446Y-3.545
X5.465Y-3.6697
X5.4685Y-4.0167
X5.47Y-3.79
X5.4795Y-4.6606
X5.48Y-4.98
X5.4914Y-3.822
X5.4929Y-3.9126
X5.5Y-4.1171
X5.505Y-3.6
X5.51Y-4.83
X5.535Y-3.275
X5.545Y-4.0
X5.55Y-4.83
X5.55Y-4.98
X5.563Y-3.6339
X5.588Y-3.792
X5.5895Y-4.83
X5.5985Y-3.86
X5.605Y-4.25
X5.6061Y-4.0724
X5.6063Y-3.4921
X5.61Y-4.03
X5.63Y-4.98
X5.6348Y-3.9269
X5.635Y-3.8
X5.64Y-3.5995
X5.64Y-3.645
X5.6482Y-4.5168
X5.65Y-4.83
X5.656Y-4.286
X5.6872Y-4.4439
X5.69Y-4.87
X5.7Y-4.98
X5.7028Y-4.6024
X5.7047Y-3.5433
X5.73Y-4.515
X5.73Y-4.56
X5.732Y-3.9
X5.7382Y-3.5748
X5.79Y-4.535
X5.8189Y-4.7559
X5.8347Y-4.5097
X5.87Y-3.77
X5.8738Y-4.55
X5.8778Y-4.0073
X5.8819Y-4.2531
X5.8957Y-4.752
X5.9134Y-4.0118
X5.9252Y-3.5669
X5.935Y-4.365
X5.936Y-4.312
X5.937Y-3.9882
X5.97Y-3.81
X5.97Y-3.87
X5.9724Y-3.6063
X5.9743Y-3.9831
T3
X5.5764Y-4.4413
X5.5764Y-4.5201
T4
X5.055Y-3.365
X5.055Y-3.465
X5.155Y-3.365
X5.155Y-3.465
X5.255Y-3.365
X5.255Y-3.465
X5.355Y-3.365
X5.355Y-3.465
X5.4528Y-3.0642
X5.455Y-3.365
X5.455Y-3.465
X5.5528Y-3.0642
X5.6368Y-3.3661
X5.6528Y-3.0642
X5.7368Y-3.3661
X5.8278Y-3.171
X5.8368Y-3.3661
X5.9Y-2.65
X5.9Y-2.8169
X5.9Y-3.0
X5.9278Y-3.171
X6.0722Y-2.7063
X6.0722Y-2.8063
X6.0722Y-2.9063
X6.0722Y-3.0063
X6.0722Y-3.1063
X6.0722Y-3.2063
X6.0722Y-3.3063
X6.0722Y-3.4063
X6.0722Y-3.5063
X6.0722Y-3.6063
X6.0722Y-3.7063
X6.0722Y-3.8063
X6.0722Y-3.9063
X6.0722Y-4.0063
X6.0722Y-4.1063
X6.0722Y-4.2063
X6.0722Y-4.3063
X6.0722Y-4.4063
X6.0722Y-4.5063
X6.0722Y-4.6063
X6.1244Y-5.513
X6.1722Y-2.7063
X6.1722Y-2.8063
X6.1722Y-2.9063
X6.1722Y-3.0063
X6.1722Y-3.1063
X6.1722Y-3.2063
X6.1722Y-3.3063
X6.1722Y-3.4063
X6.1722Y-3.5063
X6.1722Y-3.6063
X6.1722Y-3.7063
X6.1722Y-3.8063
X6.1722Y-3.9063
X6.1722Y-4.0063
X6.1722Y-4.1063
X6.1722Y-4.2063
X6.1722Y-4.3063
X6.1722Y-4.4063
X6.1722Y-4.5063
X6.1722Y-4.6063
T5
X4.5Y-2.7
X4.6Y-2.7
X4.7Y-2.7
X5.1Y-2.7
X5.2Y-2.7
X5.3Y-2.7
X5.5Y-2.6992
X5.6Y-2.6992
X5.7Y-2.6992
X6.0319Y-5.0638
X6.0319Y-5.1638
X6.0319Y-5.2638
T6
X4.9646Y-4.665
X4.9646Y-4.765
X4.9646Y-4.865
X4.9646Y-4.965
X4.9646Y-5.065
T7
X4.956Y-5.43
X5.056Y-5.43
T8
X4.1931Y-2.5146
X4.1931Y-4.798
X6.1222Y-2.5146
X6.1222Y-4.798
T2
G00X4.4701Y-5.6352
M15
G01X4.4701Y-5.6628
M16
G05
G00X4.7299Y-5.6352
M15
G01X4.7299Y-5.6628
M16
G05
M30
